<?xml version="1.0" encoding="UTF-8"?> <svg xmlns="http://www.w3.org/2000/svg" id="Laag_1" data-name="Laag 1" width="149.99" height="177.1" viewBox="0 0 149.99 177.1"><defs><style> .cls-1 { fill: #fff; } .cls-2 { fill: #0d0802; } .cls-3 { fill: #d90e29; } .cls-4 { fill: #9c9b9b; } </style></defs><path class="cls-1" d="M74.31,80.19l-.84-.57c-.71-.48-17.37-11.88-18.97-26.78l-.04-.37c-.06-.71-.09-1.31-.09-1.88,0-11.04,8.95-20.03,19.95-20.03s19.95,8.99,19.95,20.03c0,.57-.03,1.17-.09,1.89l-.04,.37c-1.6,14.89-18.26,26.29-18.97,26.77l-.84,.57Z"></path><rect class="cls-3" y="146.51" width="149.99" height="30.59"></rect><polygon class="cls-2" points="45.15 .55 45.15 4.59 36.36 4.59 36.36 27.77 32.1 27.77 32.1 4.59 23.34 4.59 23.34 .55 45.15 .55"></polygon><polygon class="cls-2" points="68.16 23.73 68.16 27.77 49.29 27.77 49.29 .55 67.93 .55 67.93 4.59 53.59 4.59 53.59 11.67 65.02 11.67 65.02 15.48 53.59 15.48 53.59 23.73 68.16 23.73"></polygon><path class="cls-2" d="M92.91,8.32c-1.62-2.53-4.69-4.08-7.94-4.08-5.62,0-9.65,4.04-9.65,9.92s4.18,9.88,9.65,9.88c3.64,0,6.9-1.94,8.44-4.82l4.3,1.17c-2.29,4.82-7.09,7.94-12.75,7.94-7.79,0-14.06-5.95-14.06-14.16S77.18,0,84.97,0c5.31,0,9.88,2.84,12.32,7.16l-4.38,1.17Z"></path><polygon class="cls-2" points="123.55 .55 123.55 27.77 119.25 27.77 119.25 15.83 106 15.83 106 27.77 101.7 27.77 101.7 .55 106 .55 106 11.82 119.25 11.82 119.25 .55 123.55 .55"></polygon><polygon class="cls-2" points="37.09 46.37 37.09 54.26 48.13 54.26 48.13 58.15 37.09 58.15 37.09 69.55 32.79 69.55 32.79 42.32 51.04 42.32 51.04 46.37 37.09 46.37"></polygon><path class="cls-2" d="M107.79,56.01c3.68,0,5.46-2.18,5.46-4.86s-1.94-4.78-5.46-4.78h-5.07v9.65h5.07Zm6.08,13.54l-5.73-9.76c-.27,.04-.54,.04-.85,.04h-4.57v9.72h-4.3v-27.23h8.87c6.51,0,10.42,3.46,10.42,8.83,0,3.81-1.97,6.57-5.42,7.86l6.43,10.54h-4.84Z"></path><polygon class="cls-2" points="6.32 88.14 6.32 96.04 17.36 96.04 17.36 99.92 6.32 99.92 6.32 111.32 2.02 111.32 2.02 84.1 20.26 84.1 20.26 88.14 6.32 88.14"></polygon><path class="cls-2" d="M47.18,84.1v15.67c0,7.86-4.3,12.1-11.43,12.1s-11.39-4.24-11.39-12.1v-15.67h4.3v15.63c0,5.48,2.4,8.13,7.09,8.13s7.17-2.64,7.17-8.13v-15.63h4.26Z"></path><polygon class="cls-2" points="72.44 84.1 72.44 88.14 63.65 88.14 63.65 111.32 59.39 111.32 59.39 88.14 50.63 88.14 50.63 84.1 72.44 84.1"></polygon><g><path class="cls-2" d="M98.74,84.1v15.67c0,7.86-4.3,12.1-11.43,12.1s-11.39-4.24-11.39-12.1v-15.67h4.3v15.63c0,5.48,2.4,8.13,7.09,8.13s7.17-2.64,7.17-8.13v-15.63h4.26Z"></path><path class="cls-2" d="M113.77,97.79c3.68,0,5.46-2.18,5.46-4.86s-1.94-4.78-5.46-4.78h-5.07v9.65h5.07Zm6.08,13.54l-5.73-9.76c-.27,.04-.54,.04-.85,.04h-4.57v9.72h-4.3v-27.23h8.87c6.51,0,10.42,3.46,10.42,8.83,0,3.81-1.98,6.57-5.42,7.86l6.43,10.54h-4.84Z"></path></g><polygon class="cls-2" points="148.48 107.28 148.48 111.32 129.61 111.32 129.61 84.1 148.24 84.1 148.24 88.14 133.91 88.14 133.91 95.22 145.34 95.22 145.34 99.03 133.91 99.03 133.91 107.28 148.48 107.28"></polygon><g><path class="cls-2" d="M74.31,33.6c-9.33,0-16.92,7.62-16.92,16.99,0,.48,.03,1,.08,1.61l.03,.31c1.26,11.69,13.46,21.49,16.81,23.97,3.35-2.49,15.56-12.3,16.81-23.97l.04-.33c.05-.61,.08-1.12,.08-1.6,0-9.37-7.59-16.99-16.93-16.99m0,46.59l-.84-.57c-.71-.48-17.37-11.88-18.97-26.78l-.04-.37c-.06-.71-.09-1.31-.09-1.88,0-11.04,8.95-20.03,19.95-20.03s19.95,8.99,19.95,20.03c0,.57-.03,1.17-.09,1.89l-.04,.37c-1.6,14.89-18.26,26.29-18.97,26.77l-.84,.57Z"></path><path class="cls-3" d="M74.31,63.5c-7.1,0-12.85-5.78-12.85-12.91s5.75-12.91,12.85-12.91,12.85,5.78,12.85,12.91-5.76,12.91-12.85,12.91"></path><path class="cls-2" d="M74.31,39.2c-6.25,0-11.34,5.11-11.34,11.39s5.09,11.39,11.34,11.39,11.34-5.11,11.34-11.39-5.09-11.39-11.34-11.39m0,25.81c-7.92,0-14.37-6.47-14.37-14.43s6.44-14.43,14.37-14.43,14.37,6.47,14.37,14.43-6.45,14.43-14.37,14.43"></path><path class="cls-1" d="M74.31,54.46c-2.13,0-3.85-1.73-3.85-3.87s1.73-3.87,3.85-3.87,3.86,1.73,3.86,3.87-1.73,3.87-3.86,3.87"></path><path class="cls-2" d="M7.02,130h-.77v-1.08c-.23-.07-.72-.17-1.29-.17-1.67,0-2.79,.98-2.79,2.85s.96,2.95,2.83,2.95c.42,0,.81-.07,1.15-.15l.04-1.14h.77l-.04,1.67c-.4,.18-1.33,.29-1.97,.29-2.26,0-3.67-1.14-3.67-3.52,0-1.93,1.17-3.62,3.74-3.62,.73,0,1.53,.17,2,.34v1.58Z"></path><path class="cls-2" d="M11.66,132c0-.8-.5-1.49-1.34-1.49s-1.45,.65-1.5,1.49h2.85Zm-2.85,.62c.03,1.04,.48,1.92,1.92,1.92,.55,0,1.1-.17,1.52-.38l-.03,.7c-.37,.19-1.16,.36-1.67,.36-1.6,0-2.59-.88-2.59-2.65,0-1.5,.8-2.67,2.35-2.67,2,0,2.19,1.82,2.19,2.73h-3.69Z"></path><path class="cls-2" d="M16.94,134.47h.65c0-.79,.04-1.62,.04-2.43,0-.49-.02-1.48-1.15-1.48-.72,0-1.5,.43-1.5,1.81l-.02,2.1h.74v.62h-2.2v-.62h.65l.04-3.84h-.81v-.62h1.62c0,.2,0,.47-.03,.61l-.08,.51h.02c.22-.77,1.03-1.24,1.8-1.24,1.39,0,1.74,.95,1.74,1.91,0,.87-.04,1.88-.04,2.67h.74v.62h-2.2v-.62Z"></path><path class="cls-2" d="M19.88,130.01h.81l.04-1.24,.8-.05-.04,1.29h1.59v.62h-1.6c-.02,.85-.04,1.7-.04,2.55,0,.73,0,1.36,.77,1.36,.41,0,.79-.12,1-.21l-.03,.64c-.26,.13-.73,.24-1.14,.24-1.41,0-1.41-1.02-1.41-1.67s.03-2.18,.04-2.92h-.8v-.62Z"></path><path class="cls-2" d="M24.54,130.63h-.86v-.62h1.67v.28c0,.3-.06,.9-.11,1.31h.03c.2-.75,.46-1.67,1.72-1.67,.07,0,.47,.04,.51,.08l-.08,.73c-.14-.05-.35-.08-.55-.08-1.04,0-1.5,1.02-1.52,1.92l-.04,1.9h.85v.62h-2.37v-.62h.72l.04-3.84Z"></path><path class="cls-2" d="M31.53,132c0-.8-.5-1.49-1.34-1.49s-1.45,.65-1.5,1.49h2.85Zm-2.85,.62c.03,1.04,.48,1.92,1.92,1.92,.55,0,1.1-.17,1.52-.38l-.03,.7c-.37,.19-1.16,.36-1.67,.36-1.6,0-2.59-.88-2.59-2.65,0-1.5,.81-2.67,2.35-2.67,2,0,2.19,1.82,2.19,2.73h-3.69Z"></path><path class="cls-2" d="M38.48,134.54c1.08,0,1.61-.89,1.61-1.99s-.53-1.99-1.61-1.99-1.61,.89-1.61,1.99,.53,1.99,1.61,1.99m0-4.65c1.54,0,2.45,1.06,2.45,2.52,0,1.62-.91,2.8-2.45,2.8s-2.45-1.06-2.45-2.52c0-1.62,.91-2.8,2.45-2.8"></path><path class="cls-2" d="M45.64,128.23c-.16-.07-.54-.12-.83-.12-1.2,0-1.32,.64-1.32,1.49v.41h1.31v.62h-1.31l-.02,3.84h.82v.62h-2.32v-.62h.69l.02-3.84h-.83v-.62h.83v-.49c0-1.49,.77-2.08,2.02-2.08,.18,0,.78,.05,.96,.12l-.03,.67Z"></path></g><polygon class="cls-2" points="48.96 128.82 48.17 128.82 48.17 128.2 52.81 128.2 52.81 129.8 52.09 129.8 52.09 128.82 49.8 128.82 49.78 131.24 51.94 131.24 51.94 131.86 49.78 131.86 49.76 134.47 52.15 134.47 52.2 133.4 52.93 133.4 52.87 135.1 48.17 135.1 48.17 134.47 48.92 134.47 48.96 128.82"></polygon><g><path class="cls-2" d="M53.68,130.01h2.2v.62h-.65v.02c.06,.03,.11,.09,.16,.15l.98,1.24,.99-1.24c.05-.06,.1-.12,.16-.15v-.02h-.71v-.62h2.02v.62h-.58l-1.51,1.81,1.61,2.03h.61v.62h-2.2v-.62h.68v-.02c-.06-.03-.11-.09-.16-.15l-1.08-1.36-1.07,1.36c-.05,.06-.1,.12-.16,.15v.02h.66v.62h-2.02v-.62h.58l1.64-1.97-1.51-1.87h-.64v-.62Z"></path><path class="cls-2" d="M61.13,134.31c.45,.16,.7,.24,1.08,.24,1.33,0,1.86-1.07,1.86-2.18,0-1.25-.63-1.8-1.41-1.8-.72,0-1.46,.43-1.49,1.81l-.04,1.93Zm-.77-3.67h-.87v-.62h1.67v.18c0,.23-.06,.73-.1,.95h.02c.21-.71,.9-1.24,1.8-1.24,1.4,0,2.04,1.1,2.04,2.45,0,1.21-.62,2.87-2.73,2.87-.35,0-.76-.08-1.04-.18l-.02,1.91h.84v.62h-2.37v-.62h.73l.04-6.32Z"></path><path class="cls-2" d="M69.53,132c0-.8-.5-1.49-1.34-1.49s-1.45,.65-1.5,1.49h2.85Zm-2.85,.62c.03,1.04,.48,1.92,1.92,1.92,.55,0,1.1-.17,1.52-.38l-.03,.7c-.37,.19-1.16,.36-1.67,.36-1.6,0-2.59-.88-2.59-2.65,0-1.5,.8-2.67,2.34-2.67,2,0,2.19,1.82,2.19,2.73h-3.69Z"></path><path class="cls-2" d="M72.05,130.63h-.86v-.62h1.67v.28c0,.3-.06,.9-.11,1.31h.03c.2-.75,.46-1.67,1.72-1.67,.07,0,.47,.04,.51,.08l-.08,.73c-.14-.05-.35-.08-.55-.08-1.04,0-1.5,1.02-1.52,1.92l-.04,1.9h.85v.62h-2.37v-.62h.72l.04-3.84Z"></path><path class="cls-2" d="M75.38,130.01h.81l.04-1.24,.81-.05-.04,1.29h1.59v.62h-1.6c-.02,.85-.04,1.7-.04,2.55,0,.73,0,1.36,.78,1.36,.41,0,.79-.12,1-.21l-.03,.64c-.26,.13-.73,.24-1.14,.24-1.41,0-1.41-1.02-1.41-1.67s.03-2.18,.04-2.92h-.81v-.62Z"></path><path class="cls-2" d="M80.35,127.44c.33,0,.61,.28,.61,.61s-.27,.61-.61,.61-.61-.28-.61-.61,.27-.61,.61-.61m-.3,3.19h-.92v-.62h1.73l-.04,4.46h.8v.62h-2.41v-.62h.81l.04-3.84Z"></path><path class="cls-2" d="M86.06,131.42h-.73l-.04-.72c-.19-.16-.66-.19-.89-.19-.51,0-1.17,.17-1.17,.78,0,.55,.49,.72,1.24,.85,1.29,.22,1.82,.61,1.82,1.45,0,.91-.61,1.63-2.07,1.63-.55,0-1.42-.14-1.74-.31l-.04-1.3h.73l.04,.76c.3,.15,.81,.23,1.15,.23,.53,0,1.17-.23,1.17-.85,0-.5-.52-.68-1.07-.8-1.36-.3-2.03-.53-2.03-1.53,0-.82,.54-1.53,1.99-1.53,.42,0,1.21,.14,1.6,.3l.04,1.22Z"></path><path class="cls-2" d="M90.96,132c0-.8-.5-1.49-1.34-1.49s-1.45,.65-1.5,1.49h2.85Zm-2.85,.62c.03,1.04,.48,1.92,1.92,1.92,.55,0,1.1-.17,1.52-.38l-.03,.7c-.37,.19-1.16,.36-1.67,.36-1.6,0-2.59-.88-2.59-2.65,0-1.5,.8-2.67,2.35-2.67,2,0,2.19,1.82,2.19,2.73h-3.69Z"></path></g><polygon class="cls-2" points="96.2 128.82 95.41 128.82 95.41 128.2 97.79 128.2 97.79 128.82 97.04 128.82 97.02 131.35 100.6 131.35 100.62 128.82 99.83 128.82 99.83 128.2 102.21 128.2 102.21 128.82 101.46 128.82 101.42 134.47 102.21 134.47 102.21 135.1 99.83 135.1 99.83 134.47 100.58 134.47 100.6 131.97 97.02 131.97 97 134.47 97.79 134.47 97.79 135.1 95.41 135.1 95.41 134.47 96.16 134.47 96.2 128.82"></polygon><polygon class="cls-2" points="105.48 128.82 103.61 128.82 103.55 129.88 102.82 129.88 102.88 128.2 108.92 128.2 108.98 129.88 108.26 129.88 108.2 128.82 106.32 128.82 106.29 134.47 107.14 134.47 107.14 135.1 104.69 135.1 104.69 134.47 105.44 134.47 105.48 128.82"></polygon><g><path class="cls-2" d="M109.83,133.35h.81v.94c.31,.19,.91,.26,1.34,.26,.98,0,1.63-.45,1.63-1.28,0-1.84-3.77-.75-3.77-3.22,0-.84,.49-1.96,2.54-1.96,.5,0,1.41,.13,1.85,.33v1.39h-.77v-.86c-.26-.11-.82-.19-1.15-.19-.74,0-1.57,.29-1.57,1.19,0,1.75,3.77,.66,3.77,3.2,0,1.52-1.29,2.07-2.62,2.07-1.13,0-1.68-.27-2.06-.34v-1.52Z"></path><path class="cls-2" d="M115.34,128.2h1.85l2.21,5.51c.05,.13,.06,.23,.11,.42h.02c.05-.2,.06-.3,.11-.42l2.21-5.51h1.9v.62h-.89l.06,5.66h.84v.62h-2.38v-.62h.74l.02-5.05h-.02c-.08,.29-.11,.38-.17,.53l-2.08,5.14h-.75l-2.11-5.19c-.05-.11-.07-.2-.14-.42h-.02l-.02,5h.84v.62h-2.32v-.62h.79l.06-5.66h-.85v-.62Z"></path><path class="cls-2" d="M130.54,134.54c1.66,0,2.33-1.39,2.33-2.9s-.68-2.9-2.33-2.9-2.34,1.39-2.34,2.9,.68,2.9,2.34,2.9m0-6.46c2.16,0,3.24,1.57,3.24,3.45,0,2.12-1.14,3.69-3.24,3.69s-3.24-1.57-3.24-3.45c0-2.12,1.14-3.68,3.24-3.68"></path><path class="cls-2" d="M137.18,134.54c1.08,0,1.61-.89,1.61-1.99s-.53-1.99-1.61-1.99-1.61,.89-1.61,1.99,.53,1.99,1.61,1.99m0-4.65c1.54,0,2.45,1.06,2.45,2.52,0,1.62-.91,2.8-2.45,2.8s-2.45-1.06-2.45-2.52c0-1.62,.91-2.8,2.45-2.8"></path><path class="cls-2" d="M144.24,131.42h-.73l-.04-.72c-.19-.16-.66-.19-.89-.19-.51,0-1.17,.17-1.17,.78,0,.55,.49,.72,1.24,.85,1.29,.22,1.83,.61,1.83,1.45,0,.91-.61,1.63-2.07,1.63-.55,0-1.42-.14-1.74-.31l-.04-1.3h.73l.04,.76c.3,.15,.81,.23,1.15,.23,.53,0,1.17-.23,1.17-.85,0-.5-.52-.68-1.07-.8-1.35-.3-2.03-.53-2.03-1.53,0-.82,.54-1.53,1.99-1.53,.42,0,1.21,.14,1.6,.3l.04,1.22Z"></path><path class="cls-2" d="M145.37,130.01h.81l.04-1.24,.8-.05-.04,1.29h1.59v.62h-1.6c-.02,.85-.04,1.7-.04,2.55,0,.73,0,1.36,.78,1.36,.41,0,.79-.12,1-.21l-.03,.64c-.25,.13-.73,.24-1.14,.24-1.41,0-1.41-1.02-1.41-1.67s.03-2.18,.04-2.92h-.8v-.62Z"></path></g><rect class="cls-4" x="1.38" y="121.27" width="147.43" height=".63"></rect><g><path class="cls-1" d="M101.49,170.25h2.07v-.58h-.69l.02-1.97c0-1.3,.75-1.7,1.37-1.7,.89,0,1.03,.67,1.03,1.36,0,.77-.03,1.54-.04,2.32h-.61v.58h2.08v-.58h-.68l.02-1.97c0-1.3,.75-1.7,1.37-1.7,.89,0,1.03,.67,1.03,1.36,0,.77-.03,1.54-.04,2.32h-.61v.58h2.07v-.58h-.7c0-.74,.04-1.7,.04-2.51,0-.91-.32-1.8-1.63-1.8-1.23,0-1.52,.92-1.62,1.12h-.02c-.12-.62-.57-1.12-1.44-1.12-.72,0-1.49,.44-1.69,1.17h-.02l.07-.48c.02-.13,.03-.39,.03-.57h-1.52v.58h.77l-.04,3.61h-.61v.58Zm-2.54-6.62c0,.31,.26,.57,.57,.57s.57-.26,.57-.57-.26-.57-.57-.57-.57,.26-.57,.57m.25,6.04h-.76v.58h2.27v-.58h-.76l.04-4.2h-1.62v.58h.87l-.04,3.61Zm-1.54-1.74c0-.85-.17-2.57-2.06-2.57-1.45,0-2.21,1.1-2.21,2.51,0,1.67,.93,2.49,2.44,2.49,.48,0,1.22-.16,1.57-.33l.03-.66c-.4,.2-.91,.36-1.43,.36-1.36,0-1.78-.83-1.81-1.81h3.47Zm-3.47-.58c.05-.79,.6-1.4,1.41-1.4s1.27,.65,1.27,1.4h-2.68Zm-6.27,2.33h-.68v.58h2.14v-.58h-.7l.03-1.97c0-1.3,.74-1.7,1.41-1.7,1.06,0,1.08,.93,1.08,1.39,0,.77-.04,1.55-.04,2.29h-.61v.58h2.07v-.58h-.7c0-.74,.04-1.7,.04-2.51,0-.91-.32-1.8-1.63-1.8-.72,0-1.49,.44-1.69,1.17h-.02c.04-.2,.09-.68,.09-.89v-2.51s-1.67,0-1.67,0v.58h.92l-.04,5.96Zm-1.86-4.02c-.37-.16-1.11-.29-1.5-.29-1.37,0-1.87,.67-1.87,1.44,0,.94,.64,1.16,1.91,1.44,.52,.11,1.01,.28,1.01,.75,0,.58-.6,.8-1.1,.8-.31,0-.79-.07-1.08-.21l-.04-.71h-.68l.04,1.22c.29,.16,1.12,.29,1.63,.29,1.37,0,1.95-.67,1.95-1.53,0-.79-.51-1.16-1.71-1.36-.7-.12-1.16-.28-1.16-.8,0-.58,.62-.73,1.1-.73,.22,0,.66,.03,.84,.18l.04,.68h.68l-.04-1.15Zm-4.3,2.28c0-.85-.17-2.57-2.06-2.57-1.45,0-2.2,1.1-2.2,2.51,0,1.67,.93,2.49,2.44,2.49,.48,0,1.22-.16,1.57-.33l.03-.66c-.4,.2-.91,.36-1.43,.36-1.36,0-1.78-.83-1.81-1.81h3.47Zm-3.47-.58c.05-.79,.6-1.4,1.41-1.4s1.27,.65,1.27,1.4h-2.68Zm-2.25-4.21h-1.71v.58h.95l-.02,1.86c-.23-.16-.71-.21-.99-.21-1.65,0-2.53,1.12-2.53,2.7s.89,2.31,1.97,2.31c.95,0,1.43-.61,1.6-1.09l.02,.02c-.05,.23-.09,.57-.09,.96h1.47v-.58h-.71l.04-6.54Zm-.77,4.59c0,.94-.23,2.01-1.38,2.01-.92,0-1.34-.78-1.34-1.67,0-1.34,.66-2.08,1.79-2.08,.58,0,.76,.15,.93,.21v1.52Zm-6.43,2.53h2.07v-.58h-.7c0-.74,.04-1.7,.04-2.51,0-.91-.32-1.8-1.63-1.8-.72,0-1.49,.44-1.69,1.17h-.02l.07-.48c.02-.13,.03-.39,.03-.57h-1.52v.58h.77l-.04,3.61h-.61v.58h2.07v-.58h-.69l.02-1.97c0-1.3,.74-1.7,1.41-1.7,1.06,0,1.08,.93,1.08,1.39,0,.77-.04,1.55-.04,2.29h-.61v.58Zm-5.77-6.62c0,.31,.26,.57,.57,.57s.57-.26,.57-.57-.26-.57-.57-.57-.57,.26-.57,.57m.25,6.04h-.76v.58h2.27v-.58h-.76l.04-4.2h-1.62v.58h.87l-.04,3.61Zm-8.06,.58h.91l1.47-3.82h.02l1.15,3.82h.91l2.16-5.9h.6v-.58h-2.18v.58h.82l-1.68,4.92c-.05,.12-.06,.23-.1,.35h-.02c-.04-.12-.06-.23-.1-.35l-1.47-4.92h.69v-.58h-2.18v.58h.69l.37,1.17-1.42,3.75c-.05,.12-.06,.23-.1,.35h-.02c-.04-.12-.05-.23-.1-.35l-1.58-4.92h.73v-.58h-2.23v.58h.66l2.01,5.9Zm-7.16,0h2.07v-.58h-.7c0-.74,.04-1.7,.04-2.51,0-.91-.32-1.8-1.63-1.8-.72,0-1.49,.44-1.69,1.17h-.02l.07-.48c.02-.13,.03-.39,.03-.57h-1.52v.58h.77l-.04,3.61h-.61v.58h2.07v-.58h-.69l.02-1.97c0-1.3,.74-1.7,1.41-1.7,1.06,0,1.08,.93,1.08,1.39,0,.77-.04,1.55-.04,2.29h-.61v.58Zm-4.17-2.33c0-.85-.17-2.57-2.06-2.57-1.45,0-2.2,1.1-2.2,2.51,0,1.67,.93,2.49,2.44,2.49,.48,0,1.22-.16,1.57-.33l.03-.66c-.4,.2-.91,.36-1.43,.36-1.36,0-1.78-.83-1.81-1.81h3.47Zm-3.47-.58c.05-.79,.6-1.4,1.41-1.4s1.26,.65,1.26,1.4h-2.68Z"></path><path class="cls-1" d="M127.53,159.13h2.07v-.58h-.7c0-.74,.04-1.7,.04-2.51,0-.91-.32-1.8-1.63-1.8-.72,0-1.49,.44-1.69,1.17h-.02l.07-.48c.02-.13,.03-.39,.03-.57h-1.52v.58h.77l-.04,3.61h-.61v.58h2.07v-.58h-.69l.02-1.97c0-1.3,.74-1.71,1.41-1.71,1.06,0,1.08,.93,1.08,1.39,0,.77-.04,1.55-.04,2.29h-.61v.58Zm-7.99-2.39c0-1.04,.5-1.87,1.51-1.87s1.51,.83,1.51,1.87-.5,1.87-1.51,1.87-1.51-.83-1.51-1.87m-.79,.13c0,1.37,.86,2.37,2.31,2.37s2.31-1.11,2.31-2.63c0-1.37-.86-2.37-2.31-2.37s-2.31,1.11-2.31,2.63m-2.47-4.36c0,.32,.26,.57,.57,.57s.57-.26,.57-.57-.26-.57-.57-.57-.57,.26-.57,.57m.25,6.04h-.76v.58h2.27v-.58h-.76l.04-4.2h-1.62v.58h.87l-.04,3.61Zm-6.29-3.61h.6l1.42,1.76-1.54,1.85h-.54v.58h1.9v-.58h-.62v-.02c.05-.03,.1-.08,.15-.14l1.01-1.28,1.02,1.28c.05,.06,.09,.11,.15,.14v.02h-.64v.58h2.06v-.58h-.57l-1.51-1.91,1.42-1.71h.55v-.58h-1.9v.58h.66v.02c-.05,.03-.1,.08-.15,.14l-.93,1.17-.92-1.17c-.05-.05-.09-.11-.15-.14v-.02h.61v-.58h-2.06v.58Zm-4.13,.08c.34-.15,.79-.19,1.06-.19,.75,0,1.09,.34,1.09,1.24v.34c-1.6,0-3.02,.13-3.02,1.46,0,1.17,.93,1.37,1.48,1.37,.84,0,1.31-.38,1.6-1.15h.02c-.04,.19-.09,.57-.09,.84v.19h1.37v-.58h-.68c0-.86,.05-2.17,.05-2.59,0-1.27-.65-1.72-1.88-1.72-.58,0-1.15,.16-1.67,.37v1.15h.68v-.74Zm.78,3.64c-.49,0-.9-.29-.9-.83,0-.9,1.14-.9,2.26-.9,0,1.44-.85,1.72-1.37,1.72m-7.09,.26c.36,.07,.87,.32,1.94,.32,1.25,0,2.46-.52,2.46-1.95,0-2.39-3.54-1.36-3.54-3.01,0-.85,.78-1.12,1.48-1.12,.3,0,.84,.08,1.08,.18v.81h.72v-1.31c-.41-.18-1.26-.3-1.73-.3-1.93,0-2.39,1.05-2.39,1.84,0,2.33,3.54,1.3,3.54,3.03,0,.78-.61,1.21-1.53,1.21-.41,0-.97-.07-1.26-.24v-.88h-.75v1.43Zm-5.59,.21h2.07v-.58h-.7c0-.74,.04-1.7,.04-2.51,0-.91-.32-1.8-1.63-1.8-.72,0-1.49,.44-1.69,1.17h-.02l.07-.48c.02-.13,.03-.39,.03-.57h-1.52v.58h.77l-.04,3.61h-.61v.58h2.07v-.58h-.69l.02-1.97c0-1.3,.74-1.71,1.41-1.71,1.06,0,1.08,.93,1.08,1.39,0,.77-.04,1.55-.04,2.29h-.61v.58Zm-7.59-4.11c.34-.15,.79-.19,1.06-.19,.75,0,1.09,.34,1.09,1.24v.34c-1.6,0-3.02,.13-3.02,1.46,0,1.17,.93,1.37,1.47,1.37,.84,0,1.31-.38,1.6-1.15h.02c-.04,.19-.09,.57-.09,.84v.19h1.37v-.58h-.68c0-.86,.05-2.17,.05-2.59,0-1.27-.65-1.72-1.88-1.72-.58,0-1.14,.16-1.67,.37v1.15h.68v-.74Zm.79,3.64c-.49,0-.9-.29-.9-.83,0-.9,1.14-.9,2.26-.9,0,1.44-.85,1.72-1.37,1.72m-7.33-3.73h.54l1.65,4.2h.76l1.64-4.2h.52v-.58h-1.9v.58h.62l-1.13,3.07c-.04,.13-.07,.27-.1,.41h-.02c-.03-.14-.06-.28-.1-.41l-1.1-3.07h.57v-.58h-1.96v.58Zm-2.05-2.89c-.17-.06-.74-.11-.9-.11-1.18,0-1.9,.56-1.9,1.96v.46h-.78v.58h.78l-.02,3.61h-.65v.58h2.18v-.58h-.78l.02-3.61h1.22v-.58s-1.22,0-1.22,0v-.39c0-.8,.12-1.4,1.25-1.4,.27,0,.63,.05,.78,.11l.03-.63Zm-4.46,4.76c0-.85-.17-2.56-2.06-2.56-1.45,0-2.21,1.1-2.21,2.51,0,1.67,.93,2.49,2.44,2.49,.48,0,1.22-.16,1.57-.33l.03-.66c-.4,.2-.91,.36-1.43,.36-1.36,0-1.78-.83-1.81-1.81h3.47Zm-3.47-.58c.05-.79,.6-1.4,1.41-1.4s1.26,.65,1.26,1.4h-2.68Zm-3.26-3.72c0,.32,.26,.57,.57,.57s.57-.26,.57-.57-.26-.57-.57-.57-.57,.26-.57,.57m.25,6.04h-.76v.58h2.27v-.58h-.76l.04-4.2h-1.62v.58h.87l-.04,3.61Zm-4.35-3.61h.76c0,.7-.04,2.16-.04,2.74s0,1.57,1.33,1.57c.39,0,.83-.1,1.07-.22l.03-.6c-.2,.08-.55,.2-.94,.2-.73,0-.73-.59-.73-1.28,0-.8,.02-1.6,.04-2.4h1.5v-.58h-1.5l.04-1.21-.76,.05-.04,1.17h-.77v.58Zm-4.2,.08c.34-.15,.79-.19,1.06-.19,.75,0,1.09,.34,1.09,1.24v.34c-1.6,0-3.02,.13-3.02,1.46,0,1.17,.93,1.37,1.48,1.37,.84,0,1.31-.38,1.6-1.15h.02c-.04,.19-.09,.57-.09,.84v.19h1.36v-.58h-.68c0-.86,.05-2.17,.05-2.59,0-1.27-.65-1.72-1.88-1.72-.58,0-1.14,.16-1.67,.37v1.15h.68v-.74Zm.79,3.64c-.49,0-.89-.29-.89-.83,0-.9,1.14-.9,2.26-.9,0,1.44-.85,1.72-1.37,1.72m-4.27-6.15c0,.32,.26,.57,.57,.57s.57-.26,.57-.57-.26-.57-.57-.57-.57,.26-.57,.57m.25,6.04h-.76v.58h2.27v-.58h-.76l.04-4.2h-1.62v.58h.87l-.04,3.61Zm-4.35-3.61h.76c-.01,.7-.04,2.16-.04,2.74s0,1.57,1.33,1.57c.39,0,.83-.1,1.07-.22l.03-.6c-.2,.08-.55,.2-.94,.2-.73,0-.73-.59-.73-1.28,0-.8,.02-1.6,.04-2.4h1.5v-.58h-1.5l.04-1.21-.75,.05-.04,1.17h-.77v.58Zm-2.39-2.43c0,.32,.26,.57,.57,.57s.57-.26,.57-.57-.26-.57-.57-.57-.57,.26-.57,.57m.25,6.04h-.76v.58h2.27v-.58h-.76l.04-4.2h-1.62v.58h.87l-.04,3.61Zm-3.52,.58h2.06v-.58h-.7c0-.74,.04-1.7,.04-2.51,0-.91-.32-1.8-1.63-1.8-.72,0-1.49,.44-1.69,1.17h-.02l.07-.48c.02-.13,.03-.39,.03-.57h-1.52v.58h.77l-.04,3.61h-.61v.58h2.07v-.58h-.69l.02-1.97c0-1.3,.74-1.71,1.41-1.71,1.06,0,1.08,.93,1.08,1.39,0,.77-.04,1.55-.04,2.29h-.61v.58Zm-5.78-6.62c0,.32,.26,.57,.57,.57s.57-.26,.57-.57-.26-.57-.57-.57-.57,.26-.57,.57m.25,6.04h-.76v.58h2.27v-.58h-.76l.04-4.2h-1.62v.58h.87l-.04,3.61Zm-6.09,.58h2.07v-.58h-.7c0-.74,.04-1.7,.04-2.51,0-.91-.32-1.8-1.63-1.8-.72,0-1.49,.44-1.69,1.17h-.02l.07-.48c.02-.13,.03-.39,.03-.57h-1.52v.58h.76l-.04,3.61h-.61v.58h2.07v-.58h-.69l.02-1.97c0-1.3,.74-1.71,1.41-1.71,1.06,0,1.08,.93,1.08,1.39,0,.77-.04,1.55-.04,2.29h-.61v.58Zm-4.17-2.33c0-.85-.18-2.56-2.06-2.56-1.45,0-2.21,1.1-2.21,2.51,0,1.67,.93,2.49,2.44,2.49,.48,0,1.22-.16,1.57-.33l.03-.66c-.4,.2-.91,.36-1.43,.36-1.36,0-1.78-.83-1.81-1.81h3.47Zm-3.47-.58c.05-.79,.6-1.4,1.41-1.4s1.26,.65,1.26,1.4h-2.68Zm-5.42,2.33h-.7v.58h4.42l.06-1.59h-.68l-.05,1.01h-2.24l.02-2.46h2.03v-.58h-2.03l.02-2.28h2.15v.92h.68v-1.5h-4.36v.58h.74l-.04,5.32Z"></path></g></svg> 